inDegrees=no
num_controls=7
num_derivatives=13
num_iterations=167
num_multipliers=7
num_parameters=0
num_slacks=7
num_states=26
objective=0.542748
objective_accelerations=0.065959
objective_balance=0.003438
objective_effort=0.048341
objective_height=0.415858
objective_ligament=0.009152
solver_duration=1730.149566
status=Solve_Succeeded
success=true
DataType=double
version=3
OpenSimVersion=4.5
endheader
time	/jointset/ground_pelvis/pelvis_tilt/value	/jointset/ground_pelvis/pelvis_tx/value	/jointset/ground_pelvis/pelvis_ty/value	/jointset/hip_r/hip_flexion_r/value	/jointset/hip_r/hip_adduction_r/value	/jointset/hip_r/hip_rotation_r/value	/jointset/back/lumbar_extension/value	/jointset/patellofemoral_r/patellar_flexion_r/value	/jointset/knee_r/knee_flexion_r/value	/jointset/knee_r/knee_adduction_r/value	/jointset/knee_r/knee_rotation_r/value	/jointset/ankle_r/ankle_angle_r/value	/jointset/subtalar_r/subtalar_angle_r/value	/jointset/ground_pelvis/pelvis_tilt/speed	/jointset/ground_pelvis/pelvis_tx/speed	/jointset/ground_pelvis/pelvis_ty/speed	/jointset/hip_r/hip_flexion_r/speed	/jointset/hip_r/hip_adduction_r/speed	/jointset/hip_r/hip_rotation_r/speed	/jointset/back/lumbar_extension/speed	/jointset/patellofemoral_r/patellar_flexion_r/speed	/jointset/knee_r/knee_flexion_r/speed	/jointset/knee_r/knee_adduction_r/speed	/jointset/knee_r/knee_rotation_r/speed	/jointset/ankle_r/ankle_angle_r/speed	/jointset/subtalar_r/subtalar_angle_r/speed	/forceset/tau_hip_flexion_r	/forceset/tau_hip_adduction_r	/forceset/tau_hip_rotation_r	/forceset/tau_knee_flexion_r	/forceset/tau_ankle_angle_r	/forceset/tau_subtalar_angle_r	/forceset/tau_lumbar_extension	lambda_cid13_p0	lambda_cid14_p0	lambda_cid14_p1	lambda_cid14_p2	lambda_cid14_p3	lambda_cid14_p4	lambda_cid14_p5	/jointset/ground_pelvis/pelvis_tilt/accel	/jointset/ground_pelvis/pelvis_tx/accel	/jointset/ground_pelvis/pelvis_ty/accel	/jointset/hip_r/hip_flexion_r/accel	/jointset/hip_r/hip_adduction_r/accel	/jointset/hip_r/hip_rotation_r/accel	/jointset/back/lumbar_extension/accel	/jointset/patellofemoral_r/patellar_flexion_r/accel	/jointset/knee_r/knee_flexion_r/accel	/jointset/knee_r/knee_adduction_r/accel	/jointset/knee_r/knee_rotation_r/accel	/jointset/ankle_r/ankle_angle_r/accel	/jointset/subtalar_r/subtalar_angle_r/accel	gamma_cid13_p0	gamma_cid14_p0	gamma_cid14_p1	gamma_cid14_p2	gamma_cid14_p3	gamma_cid14_p4	gamma_cid14_p5
1	-0.3457233592053464	-0.02433507521748189	0.5930412820876794	1.6807823235811	-0.2314047118416826	-0.0943074573983254	-0.4363269353412618	1.560570773762582	1.56057077376305	-0.16863695401294	0.1702264199390228	0.4363109958572644	0.1127460620704597	-0.003864846896176853	0.001709185980400762	0.01966967399530083	-0.04713377595790919	0.001711949609995902	-0.00214733599340503	-7.497038545200199e-05	-0.05729742676552531	-0.05729742676552972	0.01096886714791944	0.001730919787434079	-0.007676283192020601	-0.0001204216278775389	-0.3225224976711568	0.009697858975172209	-0.003494424234353158	-0.5392988000493099	0.02351868504920028	0.01166228482146046	0.3272635856820095	-0.04241896110524501	-43.26346923110022	-4.634563174326907	3.625389773340606	20.49002655050816	-828.6381419444882	64.19502988539853	1.161019538003403	-0.02269613179168615	2.217720102626113	-6.347270583139627	0.2139598041680152	-0.1373393888620885	-0.0155525125682838	-6.143571700727468	-6.143571700727279	1.24302517540464	0.1561079601714193	-1.118441689252075	-0.0823389367642962	9.032820082942142e-09	1.731628179008949e-08	5.261374024858315e-08	7.499466290113355e-08	-9.289480105067534e-09	-1.118430133319308e-08	1.364462891775158e-07
1.01	-0.3457044530091427	-0.02431914218726789	0.5933487105052709	1.679994452896173	-0.2313769144422826	-0.09433204576438566	-0.4363278604953582	1.559690957297799	1.559690957297943	-0.1684613418797516	0.1702511067402364	0.4361781285396278	0.1127405467137266	0.007649035114148301	0.001477543074049015	0.04181050857412798	-0.1104257834413493	0.003847772018255629	-0.002772626139305828	-0.0001095098884612922	-0.1186657092794903	-0.1186657092794909	0.0241523986723759	0.003201049414778419	-0.0189169196565257	-0.0009902890621801843	-0.3224498784152081	0.00976554041081267	-0.003397500560868064	-0.5389114207610076	0.02335252877043828	0.01163920057016874	0.3271941825155905	-0.04243735588281806	-43.30556366919519	-4.649940609752052	3.625535964093303	20.53996267192053	-828.4034866705074	64.1497008835081	1.147021413915358	-0.02338420589748117	2.211435444816122	-6.317972951944757	0.2134503851236952	-0.02545403243498755	0.002677912579874077	-6.133436672676529	-6.133436672676033	1.355836268673521	0.1416995090966043	-1.129834389964529	-0.09042139146594161	1.831950879225712e-08	3.63507065719999e-08	1.08928293482715e-07	1.546486250759764e-07	-2.131647289503718e-08	-2.26262444144516e-08	2.809257119378566e-07
1.02	-0.3455703182165621	-0.02430552275328552	0.5938773813305118	1.678574100712213	-0.2313277474336064	-0.09436295307290017	-0.4363291145281298	1.558197461978688	1.558197461978506	-0.1681539306057782	0.1702903416467401	0.4359322629043632	0.1127261105337099	0.01918087237920486	0.001246466734073635	0.06391815552516052	-0.1736300757647317	0.005985871465265224	-0.003411124484443061	-0.000140746121585323	-0.1800331976312764	-0.1800331976312722	0.03732869530512755	0.004640540845349032	-0.03027594671762288	-0.001904586284590312	-0.3223772591592583	0.009833221846453615	-0.003300576887380033	-0.5385240414727052	0.0231863724916763	0.01161611631887779	0.3271247793491725	-0.04246554232983279	-43.35522666359604	-4.661344923887102	3.618996367054065	20.61419507829538	-828.2795827970137	64.14561516335952	1.16461058894968	-0.02258281851641143	2.211082577067192	-6.329727551128069	0.2144152119179893	-0.1399810287093751	-0.0148918585912232	-6.143412868291692	-6.143412868291284	1.241578197063677	0.1499803208166723	-1.142119808570488	-0.09122489438579083	2.720137150744283e-08	5.351249894486894e-08	1.621854179873103e-07	2.309683759386748e-07	-3.066993922947667e-08	-3.356777578581243e-08	4.165896507017519e-07
1.03	-0.3453206888566891	-0.02429414831945424	0.5946269120069163	1.676522162630997	-0.2312572037014565	-0.09440044620780337	-0.4363306257589838	1.556090363668891	1.5560903636689	-0.1677149197663652	0.1703437769033934	0.4355721636752196	0.1127022638909269	0.03075633379774694	0.001034802581598628	0.08597753703204336	-0.2367414470133359	0.008121610638141223	-0.004093961073917358	-0.000157049458332033	-0.241379757361332	-0.2413797573613337	0.0504690303913248	0.006036271940928897	-0.04176874184549269	-0.002876982968697357	-0.3220850969171667	0.009872176122121327	-0.003091903234447789	-0.5379810819825236	0.02332916046510265	0.01154743168283855	0.3269318751212101	-0.04250044831580891	-43.28815662352694	-4.672399515057913	3.612727131165983	20.54659213839624	-827.8825816803227	64.12549346774873	1.155727004384692	-0.01950888694446431	2.201790561821819	-6.299415530518987	0.2130049541713075	-0.03337775087076209	0.005668017344624729	-6.129278749967235	-6.129278749968381	1.349581801313662	0.1329185090632902	-1.15658378920803	-0.1020132723714041	3.607910334513742e-08	7.065518282376815e-08	2.154113442395634e-07	3.072541042369636e-07	-3.999612468171686e-08	-4.450420091523551e-08	5.52163635547316e-07
1.04	-0.3449549622654149	-0.024284700661814	0.5955967214232544	1.673839596113537	-0.2311653322407382	-0.09444495626396121	-0.4363321665054779	1.553369999516872	1.553369999517073	-0.1671446414487081	0.1704108792720299	0.4350963916099347	0.1126683400379132	0.04240031865941767	0.0008611114958654917	0.107973903511846	-0.2997557630136361	0.01025141717897337	-0.004814508735563786	-0.0001466492526375824	-0.3026863660755774	-0.302686366075587	0.06358219095415887	0.007373963241894396	-0.05341051394587464	-0.003920028330733895	-0.3217929346750757	0.009911130397789576	-0.002883229581513358	-0.537438122492342	0.02347194843852929	0.0114787470468003	0.3267389708932472	-0.04254523672181794	-43.22884615204881	-4.679587589158502	3.599872643324945	20.50430889578626	-827.5988671554832	64.14604194898848	1.178315277575409	-0.0149882051680363	2.198479571651159	-6.310316501467264	0.2132286855092186	-0.1475232431438007	-0.009551150102935523	-6.135422665129621	-6.135422665129616	1.236143292391041	0.1383723618937973	-1.171915203072913	-0.1053546299716873	4.338222236395804e-08	8.45653103315943e-08	2.6308216604833e-07	3.734511810517975e-07	-4.655259138501866e-08	-5.334626279541668e-08	6.664061503294881e-07
1.05	-0.3444728817731691	-0.02427660639896117	0.5967860522800255	1.67052783953762	-0.2310522444932839	-0.09449708417790691	-0.436331897134836	1.550037021214608	1.550037021214723	-0.1664435982940333	0.170491055903386	0.4345036701269534	0.1126236344287644	0.05398308210865514	0.0007835240639998326	0.1298691571228133	-0.3625321671078046	0.01235872316255907	-0.005621085659714485	0.0003636638024366933	-0.3638774521500709	-0.3638774521500508	0.07661949971073748	0.008651181944045447	-0.06513757549450601	-0.005035229481846805	-0.3221590681536883	0.009857124704846173	-0.002582472491675819	-0.5363271719276882	0.02340470644237558	0.011473098238926	0.327283436867976	-0.04258354630993985	-43.2244876588932	-4.652576517201596	3.562782883682655	20.23174566123793	-827.4041752628333	64.18643609844709	1.143370749568968	-0.0002872336512891632	2.181569134657908	-6.251776931555667	0.2084296991809524	-0.04869031501412418	0.1057935960283383	-6.106185445018892	-6.106185445014288	1.336466514252061	0.1209903889562057	-1.173668333667728	-0.1166228380492297	5.063613473218886e-08	9.837442045282446e-08	3.105793908432377e-07	4.393329875077735e-07	-5.302250437741615e-08	-6.212287582405903e-08	7.799820566721794e-07
1.06	-0.3438759508722368	-0.0242685166547181	0.598193639848674	1.666590224007129	-0.2309182940571143	-0.09455757094068608	-0.4363216304210753	1.546093085278316	1.546093085278347	-0.1656123936824012	0.17058372347468	0.433793564687904	0.1125673728120309	0.06537040039673457	0.0008602077739145092	0.151625245887317	-0.4249275539285347	0.01442395492205315	-0.006486278502401906	0.001852819366139489	-0.4248778928809518	-0.4248778928808958	0.08961448234574815	0.009872151229414178	-0.07688730515951668	-0.006231229847685009	-0.3225252016323004	0.009803119011903031	-0.002281715401836009	-0.5352162213630342	0.02333746444622188	0.01146744943105212	0.3278279028427053	-0.04263201479477294	-43.22815977521964	-4.621949742277484	3.519380118653814	19.98487057980867	-827.3271578469966	64.26601370079723	1.139226245343799	0.01586602318803187	2.17064660235847	-6.234113046779581	0.204813840690894	-0.1592464268511437	0.1862173516227242	-6.097293596407094	-6.097293596405848	1.227678068077461	0.1271224785373317	-1.176448826348774	-0.1215144729167437	5.620302936839812e-08	1.097116066309537e-07	3.473848981916205e-07	4.914827630081687e-07	-6.001890222605352e-08	-6.906894703954211e-08	8.651138979216312e-07
